<?xml version="1.0" encoding="UTF-8"?>
<svg version="1.1" xmlns="http://www.w3.org/2000/svg" width="180" height="180">
<path d="M0 0 C0.68433105 0.29471191 1.36866211 0.58942383 2.07373047 0.89306641 C11.03454464 4.82274615 18.641272 9.49405917 26 16 C26.59683594 16.45503906 27.19367188 16.91007812 27.80859375 17.37890625 C39.01208028 26.0467307 47.25802869 39.98044023 52.25 53 C52.4965332 53.64042236 52.74306641 54.28084473 52.99707031 54.94067383 C60.23939547 74.78194016 59.7764158 99.83696581 51.19921875 119.19921875 C49.30787283 123.23462141 47.1890949 127.12026355 45 131 C44.47792969 131.97453125 43.95585937 132.9490625 43.41796875 133.953125 C34.04245701 150.18818837 18.71119363 161.27435675 1.9375 168.875 C1.33760254 169.14948975 0.73770508 169.42397949 0.11962891 169.70678711 C-10.49226687 174.23083544 -21.36518571 175.5373727 -32.8125 175.4375 C-34.03791504 175.42992676 -35.26333008 175.42235352 -36.52587891 175.41455078 C-45.95153717 175.24362885 -54.12264877 174.21992062 -63 171 C-64.19238281 170.57589844 -65.38476562 170.15179688 -66.61328125 169.71484375 C-89.86668092 160.59137874 -107.20129088 142.53767046 -117.19091797 119.95458984 C-124.94015643 101.23388885 -126.95209103 75.00041492 -119.6171875 55.72265625 C-119.08901012 54.47709868 -118.54953108 53.236285 -118 52 C-117.54995605 50.96335205 -117.54995605 50.96335205 -117.09082031 49.90576172 C-113.35952186 41.49417505 -109.11689092 33.92724826 -103 27 C-102.33484375 26.19304688 -101.6696875 25.38609375 -100.984375 24.5546875 C-91.32895468 13.19741252 -79.54786675 5.81965288 -66 0 C-65.38688965 -0.27392578 -64.7737793 -0.54785156 -64.14208984 -0.83007812 C-45.68994197 -8.74026561 -18.23772511 -8.15283082 0 0 Z " fill="#1D1F1B" transform="translate(123,5)"/>
<path d="M0 0 C3.96843056 3.50912147 6.34394164 7.61422215 9 12.125 C12.81167512 18.48036645 16.7359912 24.727646 20.875 30.875 C25.11459938 37.17556353 29.30567132 43.50313522 33.4375 49.875 C33.97600586 50.70539795 34.51451172 51.5357959 35.06933594 52.39135742 C36.16318538 54.07893164 37.25677166 55.76667646 38.35009766 57.45458984 C40.55595764 60.85771151 42.76734601 64.25722396 44.97875977 67.65673828 C49.93908944 75.28224287 54.88939974 82.91412651 59.82763672 90.55395508 C62.89105467 95.2915148 65.96465383 100.02236289 69.04223633 104.75073242 C77.41742644 117.62062785 77.41742644 117.62062785 81.3125 123.6875 C81.84488281 124.51636719 82.37726563 125.34523438 82.92578125 126.19921875 C84 128 84 128 84 129 C74.1 129 64.2 129 54 129 C50.07436014 120.49444698 46.28658525 112.03459957 42.75 103.375 C41.69876774 100.81865565 40.64680873 98.26262263 39.59375 95.70703125 C39.31291565 95.02497116 39.0320813 94.34291107 38.74273682 93.6401825 C34.94785314 84.43260533 31.09723594 75.24829203 27.25 66.0625 C26.87129761 65.15776947 26.49259521 64.25303894 26.10241699 63.32089233 C21.8700205 53.2100551 17.62577337 43.10435223 13.359375 33.0078125 C12.98903137 32.13078171 12.61868774 31.25375092 12.23712158 30.35014343 C10.47763959 26.18347653 8.7160845 22.01771536 6.95019531 17.85375977 C6.32086936 16.3647859 5.69163252 14.87577436 5.0625 13.38671875 C4.78001404 12.72306305 4.49752808 12.05940735 4.20648193 11.37564087 C2.62775911 7.63151342 1.23329766 3.87155669 0 0 Z " fill="#009638" transform="translate(19,43)"/>
<path d="M0 0 C0.68433105 0.29471191 1.36866211 0.58942383 2.07373047 0.89306641 C11.03454464 4.82274615 18.641272 9.49405917 26 16 C26.59683594 16.45503906 27.19367188 16.91007812 27.80859375 17.37890625 C39.01208028 26.0467307 47.25802869 39.98044023 52.25 53 C52.4965332 53.64042236 52.74306641 54.28084473 52.99707031 54.94067383 C60.23939547 74.78194016 59.7764158 99.83696581 51.19921875 119.19921875 C49.30787283 123.23462141 47.1890949 127.12026355 45 131 C44.47792969 131.97453125 43.95585937 132.9490625 43.41796875 133.953125 C34.04245701 150.18818837 18.71119363 161.27435675 1.9375 168.875 C1.33760254 169.14948975 0.73770508 169.42397949 0.11962891 169.70678711 C-10.49226687 174.23083544 -21.36518571 175.5373727 -32.8125 175.4375 C-34.03791504 175.42992676 -35.26333008 175.42235352 -36.52587891 175.41455078 C-45.95153717 175.24362885 -54.12264877 174.21992062 -63 171 C-64.19238281 170.57589844 -65.38476562 170.15179688 -66.61328125 169.71484375 C-89.86668092 160.59137874 -107.20129088 142.53767046 -117.19091797 119.95458984 C-124.94015643 101.23388885 -126.95209103 75.00041492 -119.6171875 55.72265625 C-119.08901012 54.47709868 -118.54953108 53.236285 -118 52 C-117.54995605 50.96335205 -117.54995605 50.96335205 -117.09082031 49.90576172 C-113.35952186 41.49417505 -109.11689092 33.92724826 -103 27 C-102.33484375 26.19304688 -101.6696875 25.38609375 -100.984375 24.5546875 C-91.32895468 13.19741252 -79.54786675 5.81965288 -66 0 C-65.38688965 -0.27392578 -64.7737793 -0.54785156 -64.14208984 -0.83007812 C-45.68994197 -8.74026561 -18.23772511 -8.15283082 0 0 Z M-99 27 C-115.35067059 46.13906507 -121.5757773 68.35006085 -120.23193359 93.26416016 C-118.4865973 113.85177966 -109.10638433 131.25241638 -95 146 C-94.07960938 147.03253906 -94.07960938 147.03253906 -93.140625 148.0859375 C-83.56049422 158.44394215 -71.14432327 164.4884171 -58 169 C-57.08605469 169.3403125 -56.17210937 169.680625 -55.23046875 170.03125 C-33.88640571 176.781349 -10.38074563 171.16893205 8.984375 161.51171875 C17.12512234 157.09335977 23.49641297 151.49434898 30 145 C31.11375 143.90365234 31.11375 143.90365234 32.25 142.78515625 C47.77512292 126.50197069 54.54164212 103.82704953 54.35131836 81.75341797 C53.76665424 59.23468221 44.21058891 39.40501015 29 23 C9.33813013 4.50705228 -13.61027245 -2.99939673 -40.1484375 -2.33984375 C-62.78854831 -1.3160473 -83.54227278 10.87979876 -99 27 Z " fill="#019335" transform="translate(123,5)"/>
<path d="M0 0 C19.8 0 39.6 0 60 0 C56.46154239 6.48717229 53.05440758 12.69941393 49 18.8125 C48.0395318 20.27940298 47.07994116 21.74688082 46.12109375 23.21484375 C45.61690918 23.98554199 45.11272461 24.75624023 44.59326172 25.55029297 C41.71776822 29.97148539 38.89105857 34.42368892 36.0625 38.875 C35.47033691 39.80650879 34.87817383 40.73801758 34.26806641 41.69775391 C29.47644795 49.24052833 24.69995005 56.79280344 19.93359375 64.3515625 C17.95116848 67.49509418 15.96381356 70.63542987 13.97265625 73.7734375 C7.20375967 84.44905367 0.55854322 95.1938963 -6 106 C-7.44808631 101.65574107 -5.53733634 98.66456983 -3.86328125 94.62109375 C-3.51625153 93.76127899 -3.1692218 92.90146423 -2.81167603 92.01559448 C-1.65395187 89.15263111 -0.4831627 86.29519441 0.6875 83.4375 C1.49570406 81.44530847 2.30289838 79.45270703 3.10913086 77.4597168 C4.827294 73.21418703 6.54976295 68.97043697 8.27441406 64.72753906 C11.07984931 57.81509446 13.85211958 50.88961286 16.6171875 43.9609375 C17.07432632 42.81555008 17.53146515 41.67016266 18.00245667 40.49006653 C18.90978227 38.21609783 19.816975 35.94207611 20.72402954 33.66799927 C22.86734948 28.29477012 25.01254807 22.92229783 27.16015625 17.55078125 C27.7229982 16.13984695 27.7229982 16.13984695 28.29721069 14.70040894 C28.64007111 13.84319244 28.98293152 12.98597595 29.33618164 12.1027832 C29.63496719 11.35470901 29.93375275 10.60663483 30.24159241 9.83589172 C30.77862965 8.53587542 31.37096083 7.25807834 32 6 C21.44 6 10.88 6 0 6 C0 4.02 0 2.04 0 0 Z " fill="#C53517" transform="translate(111,64)"/>
<path d="M0 0 C9 0 9 0 13 2 C13.125 7.75 13.125 7.75 12 10 C12.515625 10.391875 13.03125 10.78375 13.5625 11.1875 C15 13 15 13 14.9375 15.5 C14 18 14 18 10 21 C6.7 21 3.4 21 0 21 C0 14.07 0 7.14 0 0 Z " fill="#029137" transform="translate(46,55)"/>
<path d="M0 0 C1.65 0 3.3 0 5 0 C5.33 5.28 5.66 10.56 6 16 C7.98 16.33 9.96 16.66 12 17 C12.33 11.39 12.66 5.78 13 0 C14.32 0 15.64 0 17 0 C17.13517903 2.75164432 17.23415251 5.49664521 17.3125 8.25 C17.35439453 9.02730469 17.39628906 9.80460937 17.43945312 10.60546875 C17.56289479 16.38253887 17.56289479 16.38253887 14.703125 19.51953125 C11.1905079 21.443349 8.95120372 21.50288047 5 21 C1.8149643 19.23984869 1.16703028 18.50109084 0 15 C-0.07029121 12.42734182 -0.09370832 9.88358569 -0.0625 7.3125 C-0.05798828 6.61060547 -0.05347656 5.90871094 -0.04882812 5.18554688 C-0.03706927 3.45699462 -0.01913454 1.72848635 0 0 Z " fill="#038D36" transform="translate(63,86)"/>
<path d="M0 0 C2.3125 0.125 2.3125 0.125 5 1 C6.8125 4.0625 6.8125 4.0625 8 7 C9.32 4.69 10.64 2.38 12 0 C13.32 0 14.64 0 16 0 C15.58006245 3.35950041 14.59843232 5.87624933 13 8.8125 C10.84516975 12.91136189 10.32843935 16.40184909 10 21 C8.68 21 7.36 21 6 21 C5.938125 19.72125 5.87625 18.4425 5.8125 17.125 C5.29218789 12.15050092 3.45682194 8.40767484 1.05859375 4.06640625 C0 2 0 2 0 0 Z " fill="#038F36" transform="translate(83,116)"/>
<path d="M0 0 C3.3 0 6.6 0 10 0 C10 0.99 10 1.98 10 3 C7.69 3 5.38 3 3 3 C3 4.32 3 5.64 3 7 C4.98 7 6.96 7 9 7 C9 7.99 9 8.98 9 10 C7.02 10 5.04 10 3 10 C3 11.65 3 13.3 3 15 C5.31 15 7.62 15 10 15 C10 15.99 10 16.98 10 18 C6.7 18 3.4 18 0 18 C0 12.06 0 6.12 0 0 Z " fill="#B73217" transform="translate(126,42)"/>
<path d="M0 0 C0 0.99 0 1.98 0 3 C-2.97 2.505 -2.97 2.505 -6 2 C-5.26023529 5.2925712 -5.26023529 5.2925712 -1.9375 6.875 C1 9 1 9 1.625 11.5625 C1 14 1 14 -0.625 15.8125 C-3.57202207 17.28601103 -5.74704886 17.22179212 -9 17 C-9.33 15.68 -9.66 14.36 -10 13 C-8.02 13 -6.04 13 -4 13 C-3.67 12.01 -3.34 11.02 -3 10 C-4.98 9.34 -6.96 8.68 -9 8 C-10.31668238 2.6135721 -10.31668238 2.6135721 -9 0.0625 C-5.88995237 -1.58971281 -3.34272722 -0.69377357 0 0 Z " fill="#BB3217" transform="translate(122,43)"/>
<path d="M0 0 C1.32 0 2.64 0 4 0 C4 4.95 4 9.9 4 15 C5.98 15 7.96 15 10 15 C10 15.99 10 16.98 10 18 C8.52093108 18.02689216 7.04172517 18.04634621 5.5625 18.0625 C4.32693359 18.07990234 4.32693359 18.07990234 3.06640625 18.09765625 C1 18 1 18 0 17 C-0.07325168 14.13732433 -0.09238205 11.299281 -0.0625 8.4375 C-0.05798828 7.63119141 -0.05347656 6.82488281 -0.04882812 5.99414062 C-0.03700518 3.99606244 -0.01906914 1.99802217 0 0 Z " fill="#B13117" transform="translate(150,42)"/>
<path d="M0 0 C0.99 0 1.98 0 3 0 C3 4.95 3 9.9 3 15 C4.98 15 6.96 15 9 15 C9 15.99 9 16.98 9 18 C6.03 18 3.06 18 0 18 C0 12.06 0 6.12 0 0 Z " fill="#C03317" transform="translate(139,42)"/>
<path d="M0 0 C1.65 0 3.3 0 5 0 C5.38218767 1.65614657 5.71395102 3.32457024 6 5 C5 6 5 6 2.4375 6.0625 C1.2309375 6.0315625 1.2309375 6.0315625 0 6 C0 4.02 0 2.04 0 0 Z " fill="#1B241C" transform="translate(50,67)"/>
<path d="M0 0 C0.99 0 1.98 0 3 0 C2.51675181 5.15464734 -0.18610761 8.81550319 -3 13 C-4.23593891 9.29218328 -3.5678132 8.32489747 -2.0625 4.8125 C-1.68222656 3.91144531 -1.30195312 3.01039063 -0.91015625 2.08203125 C-0.60980469 1.39496094 -0.30945313 0.70789063 0 0 Z " fill="#A63017" transform="translate(108,157)"/>
<path d="M0 0 C1.65 0 3.3 0 5 0 C4.67 1.65 4.34 3.3 4 5 C2.68 5 1.36 5 0 5 C0 3.35 0 1.7 0 0 Z " fill="#1B251C" transform="translate(50,59)"/>
</svg>
