<?xml version="1.0" encoding="UTF-8"?>
<svg version="1.1" xmlns="http://www.w3.org/2000/svg" width="48" height="48" viewBox="-4 -4 56 56">
<path d="M0 0 C5.82485779 3.51996782 10.54466582 8.98962934 12.5625 15.5 C13.36764105 23.33608208 13.68710392 31.11922577 8.5625 37.5 C3.75801361 42.54521222 -0.59927055 46.10562995 -7.70703125 46.8359375 C-16.22326573 46.92983204 -22.11345494 46.6177288 -28.40234375 40.62890625 C-34.7841668 33.72505269 -35.91792252 28.29832071 -35.7421875 18.9453125 C-35.04689797 11.08319245 -31.38995981 6.95041296 -25.53515625 1.9453125 C-18.47077988 -2.92213491 -7.84396301 -3.47595223 0 0 Z " fill="#21241C" transform="translate(35.4375,1.5)"/>
<path d="M0 0 C5.82485779 3.51996782 10.54466582 8.98962934 12.5625 15.5 C13.36764105 23.33608208 13.68710392 31.11922577 8.5625 37.5 C3.75801361 42.54521222 -0.59927055 46.10562995 -7.70703125 46.8359375 C-16.22326573 46.92983204 -22.11345494 46.6177288 -28.40234375 40.62890625 C-34.7841668 33.72505269 -35.91792252 28.29832071 -35.7421875 18.9453125 C-35.04689797 11.08319245 -31.38995981 6.95041296 -25.53515625 1.9453125 C-18.47077988 -2.92213491 -7.84396301 -3.47595223 0 0 Z M-29.4375 7.5 C-29.53170451 13.67981566 -25.64017223 18.28627021 -22.3125 23.1875 C-21.12856194 24.96721892 -19.94496578 26.74716533 -18.76171875 28.52734375 C-17.90392822 29.80714111 -17.90392822 29.80714111 -17.02880859 31.11279297 C-15.01634469 34.13179758 -13.06410856 37.18340976 -11.125 40.25 C-10.59261719 41.09046875 -10.06023438 41.9309375 -9.51171875 42.796875 C-9.15722656 43.35890625 -8.80273438 43.9209375 -8.4375 44.5 C-11.0775 44.5 -13.7175 44.5 -16.4375 44.5 C-16.4375 44.83 -16.4375 45.16 -16.4375 45.5 C-8.91960047 45.91594936 -2.65625288 45.70218592 3.5078125 41.0234375 C8.54551261 36.40730226 11.08177182 31.80624114 11.83984375 25.015625 C12.1510833 16.79890093 9.58326784 11.05077341 4.109375 5.0078125 C-0.41313105 0.59951115 -5.10469925 -0.63386833 -11.25 -0.75 C-18.65822442 -0.65209395 -24.4353873 2.12272885 -29.4375 7.5 Z " fill="#114C25" transform="translate(35.4375,1.5)"/>
<path d="M0 0 C2.45996775 2.45996775 2.29676247 3.23618554 2.3125 6.625 C2.13116006 13.62673658 0.58470827 18.60447362 -4.1875 23.8125 C-10.24400371 29.36218332 -16.04222882 30.36011023 -24.09375 30.10546875 C-25.03734375 30.05326172 -25.03734375 30.05326172 -26 30 C-26 29.67 -26 29.34 -26 29 C-22.92382812 28.70703125 -22.92382812 28.70703125 -19.84765625 28.4140625 C-19.23792969 28.27742188 -18.62820312 28.14078125 -18 28 C-17.67 27.34 -17.34 26.68 -17 26 C-16.34 26 -15.68 26 -15 26 C-14.72744385 25.26934326 -14.4548877 24.53868652 -14.17407227 23.78588867 C-13.05088062 21.1207317 -11.77436586 18.85569823 -10.21484375 16.42578125 C-9.68439453 15.59369141 -9.15394531 14.76160156 -8.60742188 13.90429688 C-8.05634766 13.04900391 -7.50527344 12.19371094 -6.9375 11.3125 C-5.84171306 9.60073061 -4.74662601 7.88851292 -3.65234375 6.17578125 C-3.16757568 5.42208252 -2.68280762 4.66838379 -2.18334961 3.8918457 C-0.96869037 2.01668656 -0.96869037 2.01668656 0 0 Z " fill="#1F201B" transform="translate(45,17)"/>
<path d="M0 0 C2.19439167 2.07126347 3.86934437 4.15232196 5.48828125 6.6953125 C5.94485107 7.40743896 6.4014209 8.11956543 6.87182617 8.85327148 C7.34724854 9.60294189 7.8226709 10.3526123 8.3125 11.125 C9.29367017 12.66054023 10.27543621 14.19569987 11.2578125 15.73046875 C11.72864258 16.46700684 12.19947266 17.20354492 12.68457031 17.96240234 C14.75081294 21.16300756 16.90079416 24.3050868 19.07421875 27.43359375 C20 29 20 29 20 31 C17.36 31 14.72 31 12 31 C10.44558865 27.3913678 8.89754857 23.78007525 7.35522461 20.16625977 C6.57281876 18.33663006 5.78546487 16.50911885 4.99804688 14.68164062 C4.25844727 12.94624023 4.25844727 12.94624023 3.50390625 11.17578125 C3.04830322 10.11270752 2.5927002 9.04963379 2.12329102 7.9543457 C1.10837097 5.28502438 0.45687625 2.81172097 0 0 Z " fill="#019237" transform="translate(7,15)"/>
<path d="M0 0 C4.95 0 9.9 0 15 0 C13.48755181 3.78112046 12.08310493 6.69072447 9.9609375 10.08203125 C9.38085938 11.01337891 8.80078125 11.94472656 8.203125 12.90429688 C7.29820313 14.34385742 7.29820313 14.34385742 6.375 15.8125 C5.76398437 16.79154297 5.15296875 17.77058594 4.5234375 18.77929688 C3.01918285 21.18845472 1.5112726 23.59524068 0 26 C-1.1916143 22.42515711 -0.74788456 21.71412118 0.65234375 18.33203125 C1.01650391 17.43935547 1.38066406 16.54667969 1.75585938 15.62695312 C2.14580078 14.69818359 2.53574219 13.76941406 2.9375 12.8125 C3.32357422 11.87212891 3.70964844 10.93175781 4.10742188 9.96289062 C5.06321649 7.63830372 6.02767007 5.31770801 7 3 C4.69 2.67 2.38 2.34 0 2 C0 1.34 0 0.68 0 0 Z " fill="#B63317" transform="translate(30,17)"/>
<path d="M0 0 C2.96865509 2.54456151 4.3619751 5.48994665 6 9 C5.01 9 4.02 9 3 9 C0 3.375 0 3.375 0 0 Z " fill="#048434" transform="translate(7,15)"/>
</svg>
