<?xml version="1.0" encoding="UTF-8"?>
<svg version="1.1" xmlns="http://www.w3.org/2000/svg" width="192" height="192">
<path d="M0 0 C9.49815761 7.49538953 17.30340329 15.32143007 24.09375 25.44140625 C24.72023437 26.3746875 25.34671875 27.30796875 25.9921875 28.26953125 C38.91746404 48.92739682 43.10069065 75.71325945 37.91308594 99.50268555 C33.99020314 114.50827912 27.10311006 128.59905639 17.09375 140.44140625 C16.09214844 141.66150391 16.09214844 141.66150391 15.0703125 142.90625 C0.57917689 159.88232764 -20.74380249 171.43041597 -42.90625 174.44140625 C-73.25734727 176.55580003 -98.35681323 170.56469237 -121.62133789 150.49926758 C-127.9799634 144.8223207 -133.14966023 138.53037788 -137.90625 131.44140625 C-138.53273437 130.508125 -139.15921875 129.57484375 -139.8046875 128.61328125 C-152.89186276 107.69666053 -156.60751114 81.20892255 -151.77661133 57.1237793 C-145.75511693 32.11484223 -130.02449612 10.27543137 -108.56640625 -3.80859375 C-75.11294847 -24.04161289 -31.70540188 -23.19046103 0 0 Z " fill="#1D1E1B" transform="translate(152.90625,17.55859375)"/>
<path d="M0 0 C9.49815761 7.49538953 17.30340329 15.32143007 24.09375 25.44140625 C24.72023437 26.3746875 25.34671875 27.30796875 25.9921875 28.26953125 C38.91746404 48.92739682 43.10069065 75.71325945 37.91308594 99.50268555 C33.99020314 114.50827912 27.10311006 128.59905639 17.09375 140.44140625 C16.09214844 141.66150391 16.09214844 141.66150391 15.0703125 142.90625 C0.57917689 159.88232764 -20.74380249 171.43041597 -42.90625 174.44140625 C-73.25734727 176.55580003 -98.35681323 170.56469237 -121.62133789 150.49926758 C-127.9799634 144.8223207 -133.14966023 138.53037788 -137.90625 131.44140625 C-138.53273437 130.508125 -139.15921875 129.57484375 -139.8046875 128.61328125 C-152.89186276 107.69666053 -156.60751114 81.20892255 -151.77661133 57.1237793 C-145.75511693 32.11484223 -130.02449612 10.27543137 -108.56640625 -3.80859375 C-75.11294847 -24.04161289 -31.70540188 -23.19046103 0 0 Z M-126.875 16.63671875 C-130.6318686 20.96595617 -134.03615471 24.94112598 -135.90625 30.44140625 C-134.42125 29.94640625 -134.42125 29.94640625 -132.90625 29.44140625 C-129.39672054 32.63404817 -127.01897578 36.22317796 -124.59375 40.25390625 C-120.37004332 47.14008681 -116.01790498 53.93232766 -111.59375 60.69140625 C-110.95429443 61.66907959 -110.31483887 62.64675293 -109.65600586 63.65405273 C-108.36586628 65.62601429 -107.07542218 67.59777664 -105.78466797 69.56933594 C-102.90021097 73.97962346 -100.02737604 78.3974325 -97.15625 82.81640625 C-96.62281982 83.6372168 -96.08938965 84.45802734 -95.53979492 85.30371094 C-91.70740524 91.20296104 -87.88461302 97.1083792 -84.06494141 103.01586914 C-79.46784324 110.12371566 -74.85393412 117.22059923 -70.23828125 124.31640625 C-68.0036589 127.75206424 -65.77211326 131.18969172 -63.54296875 134.62890625 C-60.33855319 139.57152414 -57.12521807 144.50825557 -53.90625 149.44140625 C-53.40867187 150.20549805 -52.91109375 150.96958984 -52.3984375 151.75683594 C-51.01041527 153.88433258 -49.61584199 156.00735799 -48.21875 158.12890625 C-47.80858643 158.75901611 -47.39842285 159.38912598 -46.97583008 160.03833008 C-44.94257651 163.26692303 -44.94257651 163.26692303 -41.90625 165.44140625 C-41.27460937 164.39726562 -40.64296875 163.353125 -39.9921875 162.27734375 C-33.02194996 150.7936026 -25.85059955 139.44721735 -18.61865234 128.12695312 C-15.9937973 124.01041399 -13.38628227 119.88300894 -10.78125 115.75390625 C-10.29261475 114.97966309 -9.80397949 114.20541992 -9.30053711 113.40771484 C-7.8354451 111.08581973 -6.37077076 108.76366172 -4.90625 106.44140625 C2.62610484 94.49753167 10.1838039 82.57021713 17.76953125 70.66015625 C18.57511475 69.39171875 18.57511475 69.39171875 19.39697266 68.09765625 C20.61167067 66.19608584 21.83647525 64.3009565 23.06787109 62.41015625 C23.70934082 61.42015625 24.35081055 60.43015625 25.01171875 59.41015625 C25.60106201 58.50716797 26.19040527 57.60417969 26.79760742 56.67382812 C28.26111862 54.58337303 28.26111862 54.58337303 28.09375 52.44140625 C29.41375 52.11140625 30.73375 51.78140625 32.09375 51.44140625 C27.56034026 29.76441255 10.74954179 11.21193411 -7.17578125 -0.73828125 C-46.3769505 -24.48298948 -95.98262343 -17.45640539 -126.875 16.63671875 Z " fill="#1D1F1B" transform="translate(152.90625,17.55859375)"/>
<path d="M0 0 C3.50952946 3.19264192 5.88727422 6.78177171 8.3125 10.8125 C12.53620668 17.69868056 16.88834502 24.49092141 21.3125 31.25 C21.95195557 32.22767334 22.59141113 33.20534668 23.25024414 34.21264648 C24.54038372 36.18460804 25.83082782 38.15637039 27.12158203 40.12792969 C30.00603903 44.53821721 32.87887396 48.95602625 35.75 53.375 C36.28343018 54.19581055 36.81686035 55.01662109 37.36645508 55.86230469 C41.19884476 61.76155479 45.02163698 67.66697295 48.84130859 73.57446289 C53.43840676 80.68230941 58.05231588 87.77919298 62.66796875 94.875 C64.9025911 98.31065799 67.13413674 101.74828547 69.36328125 105.1875 C70.47128966 106.89587517 71.57936183 108.60420899 72.6875 110.3125 C73.22189697 111.13709717 73.75629395 111.96169434 74.30688477 112.8112793 C76.85494034 116.73440152 79.42137639 120.64245674 82.0390625 124.51953125 C82.50868408 125.2158667 82.97830566 125.91220215 83.4621582 126.62963867 C84.33923539 127.92567046 85.22036193 129.21897443 86.10620117 130.5090332 C89 134.78140986 89 134.78140986 89 137 C78.44 137 67.88 137 57 137 C49.47448999 119.53654699 41.98480017 102.060244 34.6875 84.5 C34.38631256 83.77525482 34.08512512 83.05050964 33.77481079 82.30380249 C32.52233905 79.28942185 31.27012451 76.27493454 30.01826477 73.26029968 C26.28949636 64.28376469 22.54175636 55.31517244 18.79019165 46.34814453 C18.03082641 44.53271645 17.27183573 42.71713163 16.51327515 40.90136719 C15.439457 38.33099449 14.36456809 35.7610733 13.2890625 33.19140625 C12.94347794 32.36520782 12.59789337 31.5390094 12.24183655 30.68777466 C10.33984673 26.15289841 8.41325711 21.62973243 6.45996094 17.11669922 C6.0425766 16.15094467 5.62519226 15.18519012 5.19515991 14.19017029 C4.38710844 12.3240475 3.57588784 10.45929302 2.76113892 8.59608459 C2.3995871 7.76121017 2.03803528 6.92633575 1.66552734 6.06616211 C1.3433725 5.32772568 1.02121765 4.58928925 0.68930054 3.82847595 C0 2 0 2 0 0 Z " fill="#009638" transform="translate(21,47)"/>
<path d="M0 0 C9.49815761 7.49538953 17.30340329 15.32143007 24.09375 25.44140625 C24.72023437 26.3746875 25.34671875 27.30796875 25.9921875 28.26953125 C38.91746404 48.92739682 43.10069065 75.71325945 37.91308594 99.50268555 C33.99020314 114.50827912 27.10311006 128.59905639 17.09375 140.44140625 C16.09214844 141.66150391 16.09214844 141.66150391 15.0703125 142.90625 C0.57917689 159.88232764 -20.74380249 171.43041597 -42.90625 174.44140625 C-73.25734727 176.55580003 -98.35681323 170.56469237 -121.62133789 150.49926758 C-127.9799634 144.8223207 -133.14966023 138.53037788 -137.90625 131.44140625 C-138.53273437 130.508125 -139.15921875 129.57484375 -139.8046875 128.61328125 C-152.89186276 107.69666053 -156.60751114 81.20892255 -151.77661133 57.1237793 C-145.75511693 32.11484223 -130.02449612 10.27543137 -108.56640625 -3.80859375 C-75.11294847 -24.04161289 -31.70540188 -23.19046103 0 0 Z M-126.6640625 16.3203125 C-145.55580369 38.01403977 -151.35937178 62.87288433 -149.6953125 91.0078125 C-146.98167229 114.61648234 -133.35279118 136.42952439 -115.31835938 151.42163086 C-94.81990488 167.69337412 -69.61298504 173.69400857 -43.77880859 171.23925781 C-20.01421593 167.93428953 2.41141031 154.22317682 17.03515625 135.38671875 C23.33221172 126.37726937 28.27004277 116.75652344 32.09375 106.44140625 C32.42632812 105.54421875 32.75890625 104.64703125 33.1015625 103.72265625 C35.56918905 95.5620015 36.45653512 87.76502252 36.40625 79.25390625 C36.39779053 77.74280273 36.39779053 77.74280273 36.38916016 76.20117188 C35.98438687 51.14530439 25.40699087 29.31725495 8.09375 11.44140625 C-11.68877684 -7.50901973 -35.71799787 -15.34491382 -62.71484375 -14.8046875 C-87.59233733 -13.89337418 -109.70462381 -1.3838041 -126.6640625 16.3203125 Z " fill="#009437" transform="translate(152.90625,17.55859375)"/>
<path d="M0 0 C20.79 0 41.58 0 63 0 C56.25309969 12.36931724 56.25309969 12.36931724 53.3359375 16.875 C52.69495117 17.86999512 52.05396484 18.86499023 51.39355469 19.89013672 C50.72743164 20.9163916 50.06130859 21.94264648 49.375 23 C47.95006501 25.21064375 46.52558981 27.42158394 45.1015625 29.6328125 C44.40450195 30.71336914 43.70744141 31.79392578 42.98925781 32.90722656 C40.21871411 37.21469436 37.47985365 41.5416664 34.75 45.875 C34.27095215 46.63490234 33.7919043 47.39480469 33.29833984 48.17773438 C32.34384148 49.69223534 31.38957477 51.20688232 30.43554688 52.72167969 C27.96040421 56.64991631 25.47986832 60.57474565 23 64.5 C21.99997552 66.08331787 20.99997549 67.66665119 20 69.25 C11 83.5 2 97.75 -7 112 C-8 110 -8 110 -7.52679443 108.26022339 C-7.10312592 107.20497971 -7.10312592 107.20497971 -6.67089844 106.12841797 C-6.35106995 105.32076996 -6.03124146 104.51312195 -5.70172119 103.68099976 C-5.34124695 102.79369171 -4.98077271 101.90638367 -4.609375 100.9921875 C-4.23746033 100.05903717 -3.86554565 99.12588684 -3.48236084 98.16445923 C-2.24528893 95.06510289 -0.99755947 91.97014803 0.25 88.875 C1.109538 86.72623691 1.96825166 84.5771439 2.82617188 82.42773438 C4.62502621 77.92285346 6.42751337 73.4194507 8.23242188 68.91699219 C12.26865637 58.83991932 16.26104885 48.74550078 20.2532959 38.65093994 C21.48159292 35.54652234 22.71174523 32.44284588 23.94238281 29.33935547 C24.70119814 27.42416405 25.45998851 25.50896275 26.21875 23.59375 C26.55859924 22.73737946 26.89844849 21.88100891 27.24859619 20.99868774 C27.56810242 20.19152313 27.88760864 19.38435852 28.21679688 18.55273438 C28.49036011 17.86256226 28.76392334 17.17239014 29.04577637 16.46130371 C30.39331825 12.98548346 31.69104894 9.49053616 33 6 C22.11 6 11.22 6 0 6 C0 4.02 0 2.04 0 0 Z " fill="#C73517" transform="translate(119,69)"/>
<path d="M0 0 C10 0 10 0 14 2 C14 5 14 8 14 11 C14.66 11.66 15.32 12.32 16 13 C15.875 16.5 15.875 16.5 15 20 C11 22 11 22 0 22 C0 14.74 0 7.48 0 0 Z " fill="#019437" transform="translate(49,59)"/>
<path d="M0 0 C1.32 0 2.64 0 4 0 C4.06058594 1.14339844 4.12117188 2.28679687 4.18359375 3.46484375 C4.26798428 4.95574305 4.35263302 6.44662775 4.4375 7.9375 C4.47681641 8.69224609 4.51613281 9.44699219 4.55664062 10.22460938 C4.44038024 13.91944187 4.44038024 13.91944187 6 17 C7.98 17 9.96 17 12 17 C12.33 11.39 12.66 5.78 13 0 C14.65 0 16.3 0 18 0 C18.08132187 2.56314499 18.14064175 5.12368418 18.1875 7.6875 C18.21263672 8.40873047 18.23777344 9.12996094 18.26367188 9.87304688 C18.32652697 14.46146874 17.86703752 17.36934474 15 21 C12.70013269 22.14993366 11.18530912 22.2316929 8.625 22.3125 C7.46871094 22.36857422 7.46871094 22.36857422 6.2890625 22.42578125 C4 22 4 22 1.7265625 20.55859375 C-0.86140486 16.72348375 -0.43327482 13.26138013 -0.25 8.75 C-0.23195313 7.90953125 -0.21390625 7.0690625 -0.1953125 6.203125 C-0.14830798 4.13492605 -0.07656724 2.06731559 0 0 Z " fill="#029137" transform="translate(68,92)"/>
<path d="M0 0 C2.3125 0.125 2.3125 0.125 5 1 C6.8125 4.0625 6.8125 4.0625 8 7 C9.74271938 4.702779 11.39911152 2.40133271 13 0 C14.32 0 15.64 0 17 0 C16.03365473 3.12203856 15.0562801 5.90094703 13.4375 8.75 C11.50963842 13.10864357 11.27047527 17.28067279 11 22 C9.35 22 7.7 22 6 22 C5.938125 20.72125 5.87625 19.4425 5.8125 18.125 C5.29511887 13.17068373 3.47306677 9.47317866 1.05859375 5.1640625 C0 3 0 3 0 0 Z " fill="#039036" transform="translate(89,124)"/>
<path d="M0 0 C3.63 0 7.26 0 11 0 C11 0.99 11 1.98 11 3 C8.69 3 6.38 3 4 3 C4 4.65 4 6.3 4 8 C5.98 8 7.96 8 10 8 C10 8.99 10 9.98 10 11 C8.02 11 6.04 11 4 11 C4 12.65 4 14.3 4 16 C6.31 16 8.62 16 11 16 C11 16.99 11 17.98 11 19 C7.37 19 3.74 19 0 19 C0 12.73 0 6.46 0 0 Z " fill="#B93217" transform="translate(134,45)"/>
<path d="M0 0 C3 0.1875 3 0.1875 5 1.1875 C5 2.1775 5 3.1675 5 4.1875 C3.02 4.1875 1.04 4.1875 -1 4.1875 C-1 4.8475 -1 5.5075 -1 6.1875 C2.465 8.1675 2.465 8.1675 6 10.1875 C6.25 13 6.25 13 6 16.1875 C3.70343609 18.83738144 2.37545798 19.15746336 -1.125 19.4375 C-4 19.1875 -4 19.1875 -6 18.1875 C-6 17.1975 -6 16.2075 -6 15.1875 C-3.69 15.1875 -1.38 15.1875 1 15.1875 C1.33 14.1975 1.66 13.2075 2 12.1875 C0.824375 11.754375 0.824375 11.754375 -0.375 11.3125 C-3 10.1875 -3 10.1875 -5 8.1875 C-5.25 5.1875 -5.25 5.1875 -5 2.1875 C-3 0.1875 -3 0.1875 0 0 Z " fill="#C03317" transform="translate(125,44.8125)"/>
<path d="M0 0 C1.32 0 2.64 0 4 0 C4 5.28 4 10.56 4 16 C6.31 16 8.62 16 11 16 C11 16.99 11 17.98 11 19 C9.35425434 19.02688151 7.70838587 19.04634123 6.0625 19.0625 C5.14597656 19.07410156 4.22945312 19.08570312 3.28515625 19.09765625 C1 19 1 19 0 18 C-0.08631874 16.65732587 -0.10706473 15.31025678 -0.09765625 13.96484375 C-0.09443359 13.15595703 -0.09121094 12.34707031 -0.08789062 11.51367188 C-0.07951172 10.66353516 -0.07113281 9.81339844 -0.0625 8.9375 C-0.05798828 8.08349609 -0.05347656 7.22949219 -0.04882812 6.34960938 C-0.03700373 4.23304337 -0.01906769 2.11651315 0 0 Z " fill="#B23117" transform="translate(160,45)"/>
<path d="M0 0 C1.32 0 2.64 0 4 0 C4 5.28 4 10.56 4 16 C5.98 16 7.96 16 10 16 C10 16.99 10 17.98 10 19 C6.7 19 3.4 19 0 19 C0 12.73 0 6.46 0 0 Z " fill="#BB3217" transform="translate(148,45)"/>
<path d="M0 0 C2.375 -0.125 2.375 -0.125 5 0 C5.66 0.66 6.32 1.32 7 2 C6.625 4.625 6.625 4.625 6 7 C4.02 7 2.04 7 0 7 C0 4.69 0 2.38 0 0 Z " fill="#192F1F" transform="translate(53,71)"/>
<path d="M0 0 C2.475 0.495 2.475 0.495 5 1 C5.5625 2.9375 5.5625 2.9375 6 5 C5 6 5 6 2.4375 6.0625 C1.2309375 6.0315625 1.2309375 6.0315625 0 6 C0 4.02 0 2.04 0 0 Z " fill="#192E1E" transform="translate(53,62)"/>
<path d="M0 0 C0.66 0.33 1.32 0.66 2 1 C1.46884894 5.51478398 -0.36620292 8.34666857 -3 12 C-4 10 -4 10 -3.22265625 7.6171875 C-2.83980469 6.71226562 -2.45695312 5.80734375 -2.0625 4.875 C-1.68222656 3.96492187 -1.30195312 3.05484375 -0.91015625 2.1171875 C-0.60980469 1.41851562 -0.30945313 0.71984375 0 0 Z " fill="#A83117" transform="translate(115,169)"/>
</svg>
