<?xml version="1.0" encoding="UTF-8"?>
<svg version="1.1" xmlns="http://www.w3.org/2000/svg" width="512" height="512">
<path d="M0 0 C14.38042937 12.53515304 28.51863307 25.88995051 39.78515625 41.33642578 C41.00570603 43.00781369 42.25102809 44.65837503 43.5 46.30859375 C54.05023995 60.44550397 62.50355856 76.06312078 70 92 C70.50917969 93.07636719 71.01835937 94.15273437 71.54296875 95.26171875 C78.22255804 110.10724025 83.32336734 125.79652293 86.8125 141.6875 C86.99498291 142.51499756 87.17746582 143.34249512 87.36547852 144.19506836 C87.9688497 147.12226784 88.49494332 150.05408165 89 153 C89.12494843 153.72269073 89.24989685 154.44538147 89.37863159 155.18997192 C91.68904595 168.86195295 92.52991141 182.20821757 92.4375 196.0625 C92.43293793 197.52577728 92.43293793 197.52577728 92.42828369 199.01861572 C92.31604234 223.48573342 89.02291519 246.52339781 82 270 C81.76555176 270.7955127 81.53110352 271.59102539 81.28955078 272.41064453 C74.11171087 296.39587527 62.75880178 320.74339756 48 341 C47.27039063 342.00160156 46.54078125 343.00320313 45.7890625 344.03515625 C43.55677606 347.04836201 41.28990573 350.03040494 39 353 C38.35289062 353.84304688 37.70578125 354.68609375 37.0390625 355.5546875 C24.85068182 371.12596567 10.68542966 385.93909193 -5 398 C-5.56348145 398.44520996 -6.12696289 398.89041992 -6.70751953 399.34912109 C-17.56106714 407.92351069 -28.98637832 415.16290035 -41 422 C-41.71768555 422.41378906 -42.43537109 422.82757813 -43.17480469 423.25390625 C-68.35391629 437.66915578 -96.53908568 446.04143206 -125 451 C-126.07193604 451.18836426 -127.14387207 451.37672852 -128.24829102 451.57080078 C-139.9075459 453.37794895 -151.53756295 453.39757395 -163.3125 453.375 C-164.37758789 453.37445618 -165.44267578 453.37391235 -166.54003906 453.37335205 C-182.72169858 453.33535409 -198.16707353 452.59651332 -214 449 C-215.47170654 448.68651611 -215.47170654 448.68651611 -216.97314453 448.36669922 C-258.5075457 439.43349065 -296.72227481 420.57468241 -329 393 C-329.73734375 392.37480469 -330.4746875 391.74960937 -331.234375 391.10546875 C-345.43301506 378.6938989 -358.61484012 365.30606903 -369.59619141 349.95507812 C-370.94107741 348.08206124 -372.31445157 346.23427099 -373.69921875 344.390625 C-379.92830986 336.01657218 -385.13078864 327.22317406 -390 318 C-390.34272949 317.35305176 -390.68545898 316.70610352 -391.03857422 316.03955078 C-403.61075494 292.10486302 -411.91962011 267.53087275 -417 241 C-417.24991699 239.78425293 -417.24991699 239.78425293 -417.50488281 238.54394531 C-423.35912445 209.39394295 -422.02398233 175.98435636 -416 147 C-415.79101074 145.98180176 -415.58202148 144.96360352 -415.36669922 143.91455078 C-405.60489249 97.98652977 -383.23548449 55.23729611 -350.48535156 21.58251953 C-349.02902616 20.03092497 -347.67021794 18.43280983 -346.32421875 16.78515625 C-344.42644022 14.51101156 -342.63296015 12.6399226 -340.375 10.75 C-338.08617944 8.80874108 -335.84865787 6.85627576 -333.671875 4.7890625 C-320.35121697 -7.83695998 -304.88055353 -17.89764839 -289 -27 C-288.25169922 -27.42909668 -287.50339844 -27.85819336 -286.73242188 -28.30029297 C-202.0199315 -76.22781805 -93.14675499 -68.40435359 0 0 Z " fill="#1D1E1B" transform="translate(420,59)"/>
<path d="M0 0 C3.81004399 3.55026827 6.58383459 7.20727262 9.25 11.6875 C13.79518003 19.1365204 18.52397601 26.4554624 23.3125 33.75 C24.05474536 34.88187938 24.79693275 36.01379677 25.5390625 37.14575195 C27.00376176 39.37959646 28.46883079 41.61319705 29.93408203 43.84667969 C32.88377571 48.3489538 35.81878283 52.860682 38.75 57.375 C39.26908936 58.17429932 39.78817871 58.97359863 40.32299805 59.79711914 C41.35897814 61.39251876 42.39486751 62.9879773 43.43066406 64.58349609 C45.05433278 67.08366301 46.67931967 69.58296864 48.3046875 72.08203125 C53.82682661 80.57276599 59.34140414 89.06826053 64.84082031 97.57373047 C69.99443068 105.5419478 75.16898195 113.49653801 80.34277344 121.45166016 C83.60284195 126.46471189 86.86133538 131.47878756 90.12011719 136.49267578 C92.85298855 140.69728311 95.58625408 144.90163319 98.3203125 149.10546875 C103.83694114 157.58858637 109.34650231 166.07614542 114.84082031 174.57373047 C120.54471577 183.3927671 126.27359596 192.19556987 132 201 C138.62402343 211.18453309 145.24425119 221.37138923 151.84082031 231.57373047 C156.99443068 239.5419478 162.16898195 247.49653801 167.34277344 255.45166016 C170.60284195 260.46471189 173.86133538 265.47878756 177.12011719 270.49267578 C179.85298855 274.69728311 182.58625408 278.90163319 185.3203125 283.10546875 C190.83694114 291.58858637 196.34650231 300.07614542 201.84082031 308.57373047 C205.34484441 313.99145195 208.85813473 319.40310654 212.375 324.8125 C212.91463379 325.64257568 213.45426758 326.47265137 214.01025391 327.32788086 C216.8284317 331.66215638 219.64797406 335.99553994 222.46875 340.328125 C231.97668919 354.93515077 231.97668919 354.93515077 236.3125 361.6875 C237.11107422 362.93080078 237.11107422 362.93080078 237.92578125 364.19921875 C239 366 239 366 239 367 C210.62 367 182.24 367 153 367 C144.22088457 346.51539733 135.46510441 326.03789142 126.9296875 305.453125 C123.11861148 296.2728847 119.28008549 287.10422587 115.43838501 277.93676758 C108.60614771 261.63258598 101.79535945 245.31958468 95 229 C86.43066391 208.42108641 77.83138042 187.85485058 69.21777344 167.29443359 C65.85247992 159.26118222 62.48986792 151.22680831 59.12701416 143.1925354 C57.25144886 138.71164586 55.37571609 134.23082642 53.5 129.75 C52.74999919 127.95833367 51.99999919 126.166667 51.25 124.375 C50.87875 123.488125 50.5075 122.60125 50.125 121.6875 C46.75 113.62499999 46.75 113.62499999 45.62509155 110.93771362 C44.87479121 109.14533286 44.12448603 107.35295412 43.37417603 105.56057739 C41.50373174 101.09235299 39.63337039 96.6240939 37.76318359 92.15576172 C33.94034412 83.02232851 30.11596762 73.88954301 26.2890625 64.7578125 C21.85398474 54.17412644 17.42431198 43.58819091 13 33 C12.67630432 32.22565613 12.35260864 31.45131226 12.019104 30.65350342 C10.24937002 26.41929629 8.48256466 22.18389502 6.72113037 17.94622803 C5.96188442 16.12111643 5.19998015 14.2971114 4.43798828 12.47314453 C3.77065674 10.86415283 3.77065674 10.86415283 3.08984375 9.22265625 C2.70691162 8.30234619 2.32397949 7.38203613 1.92944336 6.43383789 C1.11293763 4.29573818 0.49258168 2.23175638 0 0 Z " fill="#009838" transform="translate(55,123)"/>
<path d="M0 0 C14.38042937 12.53515304 28.51863307 25.88995051 39.78515625 41.33642578 C41.00570603 43.00781369 42.25102809 44.65837503 43.5 46.30859375 C54.05023995 60.44550397 62.50355856 76.06312078 70 92 C70.50917969 93.07636719 71.01835937 94.15273437 71.54296875 95.26171875 C78.22255804 110.10724025 83.32336734 125.79652293 86.8125 141.6875 C86.99498291 142.51499756 87.17746582 143.34249512 87.36547852 144.19506836 C87.9688497 147.12226784 88.49494332 150.05408165 89 153 C89.12494843 153.72269073 89.24989685 154.44538147 89.37863159 155.18997192 C91.68904595 168.86195295 92.52991141 182.20821757 92.4375 196.0625 C92.43293793 197.52577728 92.43293793 197.52577728 92.42828369 199.01861572 C92.31604234 223.48573342 89.02291519 246.52339781 82 270 C81.76555176 270.7955127 81.53110352 271.59102539 81.28955078 272.41064453 C74.11171087 296.39587527 62.75880178 320.74339756 48 341 C47.27039063 342.00160156 46.54078125 343.00320313 45.7890625 344.03515625 C43.55677606 347.04836201 41.28990573 350.03040494 39 353 C38.35289062 353.84304688 37.70578125 354.68609375 37.0390625 355.5546875 C24.85068182 371.12596567 10.68542966 385.93909193 -5 398 C-5.56348145 398.44520996 -6.12696289 398.89041992 -6.70751953 399.34912109 C-17.56106714 407.92351069 -28.98637832 415.16290035 -41 422 C-41.71768555 422.41378906 -42.43537109 422.82757813 -43.17480469 423.25390625 C-68.35391629 437.66915578 -96.53908568 446.04143206 -125 451 C-126.07193604 451.18836426 -127.14387207 451.37672852 -128.24829102 451.57080078 C-139.9075459 453.37794895 -151.53756295 453.39757395 -163.3125 453.375 C-164.37758789 453.37445618 -165.44267578 453.37391235 -166.54003906 453.37335205 C-182.72169858 453.33535409 -198.16707353 452.59651332 -214 449 C-215.47170654 448.68651611 -215.47170654 448.68651611 -216.97314453 448.36669922 C-258.5075457 439.43349065 -296.72227481 420.57468241 -329 393 C-329.73734375 392.37480469 -330.4746875 391.74960937 -331.234375 391.10546875 C-345.43301506 378.6938989 -358.61484012 365.30606903 -369.59619141 349.95507812 C-370.94107741 348.08206124 -372.31445157 346.23427099 -373.69921875 344.390625 C-379.92830986 336.01657218 -385.13078864 327.22317406 -390 318 C-390.34272949 317.35305176 -390.68545898 316.70610352 -391.03857422 316.03955078 C-403.61075494 292.10486302 -411.91962011 267.53087275 -417 241 C-417.24991699 239.78425293 -417.24991699 239.78425293 -417.50488281 238.54394531 C-423.35912445 209.39394295 -422.02398233 175.98435636 -416 147 C-415.79101074 145.98180176 -415.58202148 144.96360352 -415.36669922 143.91455078 C-405.60489249 97.98652977 -383.23548449 55.23729611 -350.48535156 21.58251953 C-349.02902616 20.03092497 -347.67021794 18.43280983 -346.32421875 16.78515625 C-344.42644022 14.51101156 -342.63296015 12.6399226 -340.375 10.75 C-338.08617944 8.80874108 -335.84865787 6.85627576 -333.671875 4.7890625 C-320.35121697 -7.83695998 -304.88055353 -17.89764839 -289 -27 C-288.25169922 -27.42909668 -287.50339844 -27.85819336 -286.73242188 -28.30029297 C-202.0199315 -76.22781805 -93.14675499 -68.40435359 0 0 Z M-206 -48 C-206.94311035 -47.83371094 -207.8862207 -47.66742188 -208.85791016 -47.49609375 C-251.42519879 -39.70279459 -291.26294797 -20.24680247 -324 8 C-324.75667969 8.64582031 -325.51335937 9.29164062 -326.29296875 9.95703125 C-339.44432767 21.47823847 -351.68094178 33.8727663 -362 48 C-362.85806152 49.15105017 -363.71613451 50.30209177 -364.57421875 51.453125 C-370.61236829 59.64430614 -375.97095521 68.15804105 -381 77 C-381.54672363 77.94770264 -381.54672363 77.94770264 -382.10449219 78.91455078 C-402.2712489 114.14852688 -412.45912145 154.93241701 -412.4375 195.4375 C-412.43810425 196.61963577 -412.43810425 196.61963577 -412.4387207 197.82565308 C-412.27007516 255.9858319 -390.76432383 312.81776782 -353 357 C-352.35160156 357.76054687 -351.70320313 358.52109375 -351.03515625 359.3046875 C-340.01315379 371.87103963 -328.2011537 383.8125217 -314.71826172 393.72607422 C-312.96964318 395.02250666 -311.25171197 396.35288718 -309.53515625 397.69140625 C-281.79188337 419.04877901 -247.31307864 434.26881436 -213 441 C-211.51234131 441.29197266 -211.51234131 441.29197266 -209.99462891 441.58984375 C-147.09575523 453.35994333 -79.50712848 439.68115457 -26.625 403.5 C-14.29868019 394.85747841 -2.83616372 385.44578857 8 375 C8.55606934 374.46584473 9.11213867 373.93168945 9.68505859 373.38134766 C17.00118445 366.31714005 23.77739315 359.06399051 30 351 C30.66999023 350.15260254 30.66999023 350.15260254 31.35351562 349.28808594 C49.9484113 325.74881002 64.31641672 298.73877563 73 270 C73.29745117 269.02514648 73.59490234 268.05029297 73.90136719 267.04589844 C92.56614508 204.81046871 85.76625379 138.97323233 55.62792969 81.37792969 C47.0661283 65.50742401 36.7798221 50.65240011 25 37 C24.35417969 36.24332031 23.70835937 35.48664063 23.04296875 34.70703125 C12.02390234 22.12886175 0.19831273 10.18565152 -13.29052734 0.26953125 C-15.01518911 -1.01128011 -16.70563244 -2.32873974 -18.39453125 -3.65625 C-48.97034187 -27.34492439 -87.22709944 -42.08015498 -125.125 -48.6875 C-125.80506104 -48.80722168 -126.48512207 -48.92694336 -127.18579102 -49.05029297 C-139.47219959 -51.04518763 -151.95368925 -51.23964847 -164.375 -51.25 C-165.48350815 -51.25101212 -165.48350815 -51.25101212 -166.6144104 -51.25204468 C-179.92208902 -51.23291495 -192.87714867 -50.3321352 -206 -48 Z " fill="#009638" transform="translate(420,59)"/>
<path d="M0 0 C55.77 0 111.54 0 169 0 C167.48179758 3.79550605 166.08629982 6.67696545 163.9453125 10.0703125 C163.33679443 11.0392041 162.72827637 12.0080957 162.10131836 13.00634766 C161.4491333 14.03550293 160.79694824 15.0646582 160.125 16.125 C159.45025635 17.19669434 158.7755127 18.26838867 158.08032227 19.37255859 C156.05721189 22.5840344 154.02883127 25.79213637 152 29 C150.94357346 30.67680812 149.8875439 32.35386646 148.83203125 34.03125 C142.9901564 43.30768725 137.10419988 52.55599638 131.21508789 61.80249023 C125.94496107 70.07954829 120.7024078 78.37380434 115.46777344 86.67333984 C112.47901427 91.41101032 109.48671078 96.14644325 106.49511719 100.88232422 C104.01905673 104.80235106 101.5437665 108.72285919 99.0703125 112.64453125 C93.14046007 122.04397818 87.186155 131.4274846 81.21582031 140.80126953 C75.45304413 149.8522928 69.72362451 158.92418577 64 168 C57.09524412 178.94870594 50.16950614 189.88356411 43.21582031 200.80126953 C37.94553363 209.0787882 32.70266097 217.37340293 27.46777344 225.67333984 C24.47901427 230.41101032 21.48671078 235.14644325 18.49511719 239.88232422 C16.01905673 243.80235106 13.5437665 247.72285919 11.0703125 251.64453125 C5.69101128 260.17114381 0.29324609 268.68557408 -5.125 277.1875 C-10.80053172 286.09380315 -16.42352293 295.0313802 -22 304 C-22.33 303.34 -22.66 302.68 -23 302 C-22.11917685 299.36390212 -21.16412946 296.83224991 -20.1171875 294.26171875 C-19.79585846 293.4550325 -19.47452942 292.64834625 -19.14346313 291.81721497 C-18.06103692 289.10442848 -16.9678713 286.39609364 -15.875 283.6875 C-15.10530561 281.76334632 -14.33644298 279.83885974 -13.56835938 277.9140625 C-11.91699955 273.77781981 -10.26189914 269.64310045 -8.60449219 265.50927734 C-4.65075992 255.63906583 -0.74348275 245.75043507 3.16864014 235.86367798 C4.9579444 231.34300441 6.74944365 226.82320203 8.54092407 222.3033905 C13.53430309 209.70503186 18.51952751 197.10346561 23.5 184.5 C29.78297804 168.60071968 36.07643689 152.70561256 42.375 136.8125 C51.09744452 114.80293122 59.81597491 92.79182017 68.52648926 70.77752686 C70.9164363 64.73750896 73.30743946 58.69791025 75.69909668 52.65856934 C77.29473228 48.62888113 78.88969477 44.59892675 80.48449707 40.56890869 C81.23869182 38.66348325 81.99316313 36.75816725 82.7479248 34.85296631 C83.78321553 32.2395112 84.8175112 29.62566445 85.8515625 27.01171875 C86.15786591 26.23919266 86.46416931 25.46666656 86.77975464 24.67073059 C87.9159321 21.7962552 89.02235603 18.93293192 90 16 C60.3 16 30.6 16 0 16 C0 10.72 0 5.44 0 0 Z " fill="#CA3517" transform="translate(317,183)"/>
<path d="M0 0 C4.37487331 -0.08738991 8.74952078 -0.140524 13.125 -0.1875 C14.3625 -0.21263672 15.6 -0.23777344 16.875 -0.26367188 C18.07382813 -0.27333984 19.27265625 -0.28300781 20.5078125 -0.29296875 C21.60754395 -0.3086792 22.70727539 -0.32438965 23.84033203 -0.34057617 C28.89734814 0.20451249 32.12360061 2.21886142 35.875 5.5625 C38.57307548 9.04388772 38.58603175 12.37728977 38.3671875 16.6640625 C37.89442485 19.67163764 36.87715849 21.61745268 35 24 C34.34 24.99 33.68 25.98 33 27 C33.928125 27.53625 34.85625 28.0725 35.8125 28.625 C39.39921822 31.29745671 40.57047787 32.79085151 42 37 C42.6879952 41.73102869 42.50209129 45.0144134 40.3125 49.3125 C34.99728992 55.48963603 29.28208702 58.49558936 21.14428711 59.27270508 C18.1114261 59.36476034 15.09626425 59.3607776 12.0625 59.3125 C11.02287109 59.31572266 9.98324219 59.31894531 8.91210938 59.32226562 C1.26755509 59.26755509 1.26755509 59.26755509 -1 57 C-1.24723816 54.68493652 -1.24723816 54.68493652 -1.24291992 51.75585938 C-1.24599655 50.66132446 -1.24907318 49.56678955 -1.25224304 48.43908691 C-1.24505753 47.25262573 -1.23787201 46.06616455 -1.23046875 44.84375 C-1.23001053 43.63054077 -1.22955231 42.41733154 -1.2290802 41.1673584 C-1.22605474 38.59837874 -1.21815973 36.02940097 -1.20581055 33.46044922 C-1.18757645 29.51653583 -1.18530066 25.57285734 -1.18554688 21.62890625 C-1.18063102 19.13801879 -1.17480241 16.64713293 -1.16796875 14.15625 C-1.16685593 12.96978882 -1.1657431 11.78332764 -1.16459656 10.56091309 C-1.15821671 9.46637817 -1.15183685 8.37184326 -1.14526367 7.24414062 C-1.13954597 5.79424744 -1.13954597 5.79424744 -1.13371277 4.31506348 C-1 2 -1 2 0 0 Z " fill="#019538" transform="translate(131,158)"/>
<path d="M0 0 C1.81242052 -0.02687279 3.62495233 -0.04633715 5.4375 -0.0625 C6.44683594 -0.07410156 7.45617187 -0.08570313 8.49609375 -0.09765625 C11 0 11 0 12 1 C12.13569813 3.9813508 12.21067396 6.94274492 12.24609375 9.92578125 C12.27903857 11.77279108 12.31225011 13.61979618 12.34570312 15.46679688 C12.39309882 18.38985855 12.4375054 21.31290186 12.47680664 24.23608398 C12.51653981 27.04952575 12.5680906 29.86256259 12.62109375 32.67578125 C12.6295079 33.54882401 12.63792206 34.42186676 12.64659119 35.32136536 C12.66323318 36.13868637 12.67987518 36.95600739 12.69702148 37.7980957 C12.70732895 38.51455765 12.71763641 39.23101959 12.72825623 39.9691925 C13.05033295 42.37615038 13.71049691 43.94487392 15 46 C19.44776246 48.96517497 23.78521883 48.76239491 29 48 C32.41311667 45.47429367 33.66637768 44.00086696 35 40 C35.11235161 38.66548737 35.17575649 37.32645611 35.20532227 35.98754883 C35.22526749 35.18694534 35.24521271 34.38634186 35.26576233 33.56147766 C35.28247482 32.70201035 35.29918732 31.84254303 35.31640625 30.95703125 C35.33718735 30.0734343 35.35796844 29.18983734 35.37937927 28.27946472 C35.44475754 25.45722215 35.50370528 22.63488665 35.5625 19.8125 C35.60569637 17.89907894 35.64931102 15.98566727 35.69335938 14.07226562 C35.80042695 9.38160563 35.90172752 4.69085217 36 0 C37.81242052 -0.02687279 39.62495233 -0.04633715 41.4375 -0.0625 C42.44683594 -0.07410156 43.45617187 -0.08570313 44.49609375 -0.09765625 C47 0 47 0 48 1 C48.13861464 3.84016616 48.21324216 6.65414845 48.23828125 9.49609375 C48.246353 10.35880386 48.25442474 11.22151398 48.26274109 12.11036682 C48.27660801 13.94554625 48.28731843 15.78075176 48.29516602 17.6159668 C48.31223821 20.39488669 48.35608156 23.17257268 48.40039062 25.95117188 C48.57850719 46.00009904 48.57850719 46.00009904 42.24926758 52.91186523 C36.39739837 58.42154959 30.8520638 59.34429414 23.0625 59.3125 C22.27681641 59.32861328 21.49113281 59.34472656 20.68164062 59.36132812 C14.25295904 59.36670777 9.41258347 57.83727417 4.75 53.1875 C4.27046875 52.72730469 3.7909375 52.26710938 3.296875 51.79296875 C-0.63867173 46.35195686 -0.26623396 40.18880792 -0.1953125 33.7890625 C-0.1924826 32.82092621 -0.18965271 31.85278992 -0.18673706 30.85531616 C-0.17558696 27.77841572 -0.1504918 24.70181172 -0.125 21.625 C-0.11496352 19.5325563 -0.10583884 17.44010802 -0.09765625 15.34765625 C-0.07566453 10.23165749 -0.04117025 5.11587892 0 0 Z " fill="#019538" transform="translate(181,245)"/>
<path d="M0 0 C3.77019805 -0.47540151 7.2429272 -0.64923921 11 0 C13.69919887 2.13094648 14.69826777 4.87222672 16 8 C16.53625 9.18078125 17.0725 10.3615625 17.625 11.578125 C22 21.34539119 22 21.34539119 22 24 C22.66 24 23.32 24 24 24 C24.37125 22.80375 24.7425 21.6075 25.125 20.375 C26.58407669 16.00475117 28.2760603 11.74510199 30.0625 7.5 C30.56910156 6.2934375 31.07570313 5.086875 31.59765625 3.84375 C33 1 33 1 35 0 C36.70702735 -0.06996014 38.41668003 -0.08440154 40.125 -0.0625 C41.03507812 -0.05347656 41.94515625 -0.04445313 42.8828125 -0.03515625 C43.93082031 -0.01775391 43.93082031 -0.01775391 45 0 C46 3 46 3 44.66064453 5.91308594 C43.99234729 7.10782522 43.31577188 8.29795617 42.6328125 9.484375 C41.9014795 10.81408364 41.17315989 12.14545307 40.44750977 13.47827148 C40.06636017 14.17604706 39.68521057 14.87382263 39.29251099 15.59274292 C31.93278899 29.19159773 27.58607875 40.47441239 28.95141602 56.28295898 C28.97546509 57.13289429 28.97546509 57.13289429 29 58 C28 59 28 59 25.49609375 59.09765625 C24.48675781 59.08605469 23.47742188 59.07445312 22.4375 59.0625 C21.42558594 59.05347656 20.41367187 59.04445313 19.37109375 59.03515625 C18.19740234 59.01775391 18.19740234 59.01775391 17 59 C17.0220752 58.40276123 17.04415039 57.80552246 17.06689453 57.19018555 C17.45539646 42.14077183 15.18126982 31.81513666 7.24951172 19.04052734 C5.47117952 16.13640454 3.91723654 13.16139377 2.375 10.125 C1.90835938 9.24070312 1.44171875 8.35640625 0.9609375 7.4453125 C-0.08438953 4.78525266 -0.19286558 2.83207877 0 0 Z " fill="#019538" transform="translate(237,331)"/>
<path d="M0 0 C1.16781006 0.00523682 2.33562012 0.01047363 3.53881836 0.01586914 C4.79887695 0.0190918 6.05893555 0.02231445 7.35717773 0.02563477 C8.6976732 0.03399136 10.03816799 0.04245632 11.37866211 0.05102539 C12.72306153 0.05603879 14.06746271 0.06060197 15.41186523 0.06469727 C18.71334151 0.07653051 22.01473014 0.09301568 25.31616211 0.11352539 C25.31616211 2.75352539 25.31616211 5.39352539 25.31616211 8.11352539 C19.37616211 8.11352539 13.43616211 8.11352539 7.31616211 8.11352539 C7.31616211 11.74352539 7.31616211 15.37352539 7.31616211 19.11352539 C8.92297852 19.09612305 8.92297852 19.09612305 10.56225586 19.07836914 C11.95938954 19.0689924 13.3565251 19.05989208 14.75366211 19.05102539 C15.46071289 19.04264648 16.16776367 19.03426758 16.89624023 19.02563477 C18.7030977 19.01698951 20.51003814 19.06132528 22.31616211 19.11352539 C23.31616211 20.11352539 23.31616211 20.11352539 23.44116211 23.11352539 C23.31616211 26.11352539 23.31616211 26.11352539 22.31616211 27.11352539 C19.61961357 27.1867216 16.94924753 27.20595076 14.25366211 27.17602539 C13.49504883 27.17151367 12.73643555 27.16700195 11.95483398 27.16235352 C10.0752434 27.15053219 8.19569312 27.13259617 6.31616211 27.11352539 C6.31616211 31.73352539 6.31616211 36.35352539 6.31616211 41.11352539 C12.58616211 41.11352539 18.85616211 41.11352539 25.31616211 41.11352539 C25.31616211 43.75352539 25.31616211 46.39352539 25.31616211 49.11352539 C20.85788285 49.17135579 16.39969931 49.20706394 11.94116211 49.23852539 C10.67014648 49.2552832 9.39913086 49.27204102 8.08959961 49.28930664 C6.87788086 49.29575195 5.66616211 49.30219727 4.41772461 49.30883789 C3.2970459 49.31931152 2.17636719 49.32978516 1.02172852 49.34057617 C-1.68383789 49.11352539 -1.68383789 49.11352539 -3.68383789 47.11352539 C-3.93107605 45.13340759 -3.93107605 45.13340759 -3.92675781 42.6796875 C-3.92983444 41.76211166 -3.93291107 40.84453583 -3.93608093 39.89915466 C-3.92889542 38.90642044 -3.9217099 37.91368622 -3.91430664 36.89086914 C-3.91384842 35.87505264 -3.9133902 34.85923615 -3.91291809 33.81263733 C-3.90989385 31.66316562 -3.90200245 29.51369614 -3.88964844 27.36425781 C-3.87139413 24.06120097 -3.86913869 20.75842427 -3.86938477 17.45532227 C-3.86446968 15.37133545 -3.8586414 13.28735054 -3.85180664 11.20336914 C-3.85013741 9.71123146 -3.85013741 9.71123146 -3.84843445 8.18894958 C-3.8420546 7.27452591 -3.83567474 6.36010223 -3.82910156 5.41796875 C-3.82528976 4.60903671 -3.82147797 3.80010468 -3.81755066 2.96665955 C-3.60064655 -0.03942894 -3.03631471 0.12843504 0 0 Z " fill="#C23317" transform="translate(360.683837890625,120.886474609375)"/>
<path d="M0 0 C0.928125 0.495 1.85625 0.99 2.8125 1.5 C2.8125 4.14 2.8125 6.78 2.8125 9.5 C0.04973823 8.97731534 -2.5135876 8.39130413 -5.1875 7.5 C-6.74868428 7.43259135 -8.3125252 7.41485544 -9.875 7.4375 C-10.68324219 7.44652344 -11.49148438 7.45554688 -12.32421875 7.46484375 C-12.93910156 7.47644531 -13.55398438 7.48804688 -14.1875 7.5 C-14.1875 10.14 -14.1875 12.78 -14.1875 15.5 C-13.46691406 15.78230469 -12.74632812 16.06460938 -12.00390625 16.35546875 C2.10753916 22.09007833 2.10753916 22.09007833 5.8125 29.5 C6.37600726 34.11891196 6.2547879 37.59841312 4.1875 41.8125 C0.45850131 46.03215642 -3.67758923 49.1809172 -9.421875 49.703125 C-15.18076998 49.8104336 -19.10355398 49.25380409 -24.1875 46.5 C-26.1875 44.5 -26.1875 44.5 -26.3125 40.875 C-26.27125 39.76125 -26.23 38.6475 -26.1875 37.5 C-23.54402976 37.95316633 -21.26898874 38.46354451 -18.8125 39.5625 C-15.3870969 40.78585825 -12.79953653 40.89404035 -9.1875 40.5 C-6.58029682 38.97722993 -6.58029682 38.97722993 -5.1875 36.5 C-4.97273588 34.00992071 -4.97273588 34.00992071 -6.1875 31.5 C-8.66199652 29.91431429 -10.92078966 28.66260545 -13.5625 27.4375 C-21.98316022 23.44085206 -21.98316022 23.44085206 -24.1875 19.5 C-25.83508591 14.55724228 -25.97620488 9.58774822 -24.125 4.6875 C-17.77659701 -2.48005177 -8.72727451 -3.69979791 0 0 Z " fill="#C63417" transform="translate(344.1875,121.5)"/>
<path d="M0 0 C3.3 0 6.6 0 10 0 C10 13.53 10 27.06 10 41 C15.61 41 21.22 41 27 41 C27 43.31 27 45.62 27 48 C25.25454395 49.74545605 22.83875783 49.1302316 20.46875 49.1328125 C19.34855469 49.13410156 18.22835938 49.13539063 17.07421875 49.13671875 C15.89472656 49.13285156 14.71523438 49.12898438 13.5 49.125 C11.73076172 49.13080078 11.73076172 49.13080078 9.92578125 49.13671875 C8.24548828 49.13478516 8.24548828 49.13478516 6.53125 49.1328125 C5.49548828 49.13168457 4.45972656 49.13055664 3.39257812 49.12939453 C1 49 1 49 0 48 C-0.09311889 46.49581261 -0.11746028 44.98728644 -0.11352539 43.48022461 C-0.11344986 42.51930405 -0.11337433 41.55838348 -0.11329651 40.56834412 C-0.10813522 39.523564 -0.10297394 38.47878387 -0.09765625 37.40234375 C-0.0962413 36.33834854 -0.09482635 35.27435333 -0.09336853 34.17811584 C-0.08775064 30.76454917 -0.07519511 27.351047 -0.0625 23.9375 C-0.05748731 21.62955824 -0.052924 19.32161545 -0.04882812 17.01367188 C-0.03777539 11.34242289 -0.02049877 5.6712224 0 0 Z " fill="#C93417" transform="translate(395,121)"/>
<path d="M0 0 C3.3 0 6.6 0 10 0 C10 13.53 10 27.06 10 41 C15.28 41 20.56 41 26 41 C27 42 27 42 27.125 45 C27 48 27 48 26 49 C24.15840977 49.09959621 22.31303033 49.13080411 20.46875 49.1328125 C19.34855469 49.13410156 18.22835938 49.13539063 17.07421875 49.13671875 C15.89472656 49.13285156 14.71523438 49.12898438 13.5 49.125 C11.73076172 49.13080078 11.73076172 49.13080078 9.92578125 49.13671875 C8.24548828 49.13478516 8.24548828 49.13478516 6.53125 49.1328125 C5.49548828 49.13168457 4.45972656 49.13055664 3.39257812 49.12939453 C1 49 1 49 0 48 C-0.09311889 46.49581261 -0.11746028 44.98728644 -0.11352539 43.48022461 C-0.11344986 42.51930405 -0.11337433 41.55838348 -0.11329651 40.56834412 C-0.10813522 39.523564 -0.10297394 38.47878387 -0.09765625 37.40234375 C-0.0962413 36.33834854 -0.09482635 35.27435333 -0.09336853 34.17811584 C-0.08775064 30.76454917 -0.07519511 27.351047 -0.0625 23.9375 C-0.05748731 21.62955824 -0.052924 19.32161545 -0.04882812 17.01367188 C-0.03777539 11.34242289 -0.02049877 5.6712224 0 0 Z " fill="#C83417" transform="translate(428,121)"/>
<path d="M0 0 C12.19342668 -0.4926637 12.19342668 -0.4926637 15.890625 1.765625 C18 4 18 4 18.62890625 6 C18.50721537 9.66504304 18.42579173 11.44647075 16.125 14.4375 C12.50500466 17.09926128 10.34633091 17.11006735 5.875 17.0625 C2.966875 17.0315625 2.966875 17.0315625 0 17 C0 11.39 0 5.78 0 0 Z " fill="#1C211B" transform="translate(142,191)"/>
<path d="M0 0 C10.32295438 -0.36867694 10.32295438 -0.36867694 13.32421875 1.265625 C15 3 15 3 15.5625 6.9375 C15.37340171 10.04902634 15.06883332 10.90822224 13.125 13.5 C8.58956319 15.67700967 5.00353968 15.26685545 0 15 C0 10.05 0 5.1 0 0 Z " fill="#1C201B" transform="translate(142,167)"/>
<path d="M0 0 C1 3 1 3 0.00390625 5.04296875 C-0.47175781 5.75066406 -0.94742187 6.45835937 -1.4375 7.1875 C-1.91058594 7.90292969 -2.38367188 8.61835938 -2.87109375 9.35546875 C-3.24363281 9.89816406 -3.61617188 10.44085938 -4 11 C-5 9 -5 9 -4.51171875 7.08984375 C-4.10373047 6.02443359 -4.10373047 6.02443359 -3.6875 4.9375 C-3.42324219 4.22464844 -3.15898437 3.51179688 -2.88671875 2.77734375 C-2 1 -2 1 0 0 Z " fill="#A83117" transform="translate(299,476)"/>
</svg>
