<?xml version="1.0" encoding="UTF-8"?>
<svg version="1.1" xmlns="http://www.w3.org/2000/svg" width="64" height="64">
<path d="M0 0 C0.62132812 0.391875 1.24265625 0.78375 1.8828125 1.1875 C2.50414062 1.538125 3.12546875 1.88875 3.765625 2.25 C10.62521869 6.52611035 14.82446272 13.4804369 16.8828125 21.1875 C17.67485162 30.07491567 17.78212394 38.41951278 12.8828125 46.1875 C12.5321875 46.80882812 12.1815625 47.43015625 11.8203125 48.0703125 C7.54420215 54.92990619 0.5898756 59.12915022 -7.1171875 61.1875 C-16.00460317 61.97953912 -24.34920028 62.08681144 -32.1171875 57.1875 C-33.04917969 56.6615625 -33.04917969 56.6615625 -34 56.125 C-40.85959369 51.84888965 -45.05883772 44.8945631 -47.1171875 37.1875 C-47.90922662 28.30008433 -48.01649894 19.95548722 -43.1171875 12.1875 C-42.7665625 11.56617188 -42.4159375 10.94484375 -42.0546875 10.3046875 C-33.73233229 -3.04575731 -13.65305461 -7.47543675 0 0 Z " fill="#1C211B" transform="translate(47.1171875,2.8125)"/>
<path d="M0 0 C0.62132812 0.391875 1.24265625 0.78375 1.8828125 1.1875 C2.50414062 1.538125 3.12546875 1.88875 3.765625 2.25 C10.62521869 6.52611035 14.82446272 13.4804369 16.8828125 21.1875 C17.65681937 29.87257708 18.02801539 38.72449006 12.8828125 46.1875 C11.30809271 48.07002621 9.75173138 49.57815319 7.8828125 51.1875 C9.32052201 47.35360796 11.08111795 43.77186131 12.98046875 40.15234375 C16.00308072 33.5706389 16.07145529 25.78851744 13.82421875 18.98046875 C9.72479793 10.14838324 4.66345694 4.50518884 -4.3671875 0.75 C-13.03319143 -1.98726193 -20.27508903 -2.05172133 -28.5546875 1.875 C-32.72785041 4.20255149 -36.33257882 6.26842112 -39.1171875 10.1875 C-38.7082575 13.19284752 -37.53908024 15.42711335 -35.96484375 17.98828125 C-35.52293701 18.71088135 -35.08103027 19.43348145 -34.62573242 20.17797852 C-34.1485376 20.94424561 -33.67134277 21.7105127 -33.1796875 22.5 C-32.68895752 23.295271 -32.19822754 24.09054199 -31.69262695 24.90991211 C-26.39944364 33.43559972 -20.82751754 41.76641898 -15.16015625 50.046875 C-14.60972656 50.85640625 -14.05929688 51.6659375 -13.4921875 52.5 C-13.02554688 53.17675781 -12.55890625 53.85351562 -12.078125 54.55078125 C-11.1171875 56.1875 -11.1171875 56.1875 -11.1171875 58.1875 C-16.0671875 58.6825 -16.0671875 58.6825 -21.1171875 59.1875 C-12.24661489 59.96009826 -6.31890451 58.98259618 1.421875 54.5 C3.8828125 53.1875 3.8828125 53.1875 6.8828125 53.1875 C5.68270505 54.15611464 4.47223006 55.1118885 3.2578125 56.0625 C2.58492187 56.59617188 1.91203125 57.12984375 1.21875 57.6796875 C-6.12499909 62.41996701 -14.73479658 61.86376859 -23.1171875 61.1875 C-26.49284963 60.3152968 -29.1785606 59.04090784 -32.1171875 57.1875 C-33.04917969 56.6615625 -33.04917969 56.6615625 -34 56.125 C-40.85959369 51.84888965 -45.05883772 44.8945631 -47.1171875 37.1875 C-47.90922662 28.30008433 -48.01649894 19.95548722 -43.1171875 12.1875 C-42.7665625 11.56617188 -42.4159375 10.94484375 -42.0546875 10.3046875 C-33.73233229 -3.04575731 -13.65305461 -7.47543675 0 0 Z " fill="#1C211B" transform="translate(47.1171875,2.8125)"/>
<path d="M0 0 C3.1435817 4.71537255 2.54550054 9.47927163 2 15 C0.5394421 20.69833425 -1.41792345 25.34330048 -5 30 C-5.70514846 32.14733927 -5.70514846 32.14733927 -6 34 C-6.556875 34.11214844 -7.11375 34.22429688 -7.6875 34.33984375 C-11.24021699 35.35404843 -14.32009638 37.19663723 -17.5625 38.94140625 C-20 40 -20 40 -24 40 C-24 36 -24 36 -22.32421875 34.2734375 C-21.55722656 33.52320313 -20.79023437 32.77296875 -20 32 C-18.14193347 29.28637252 -16.48733086 26.45440647 -14.8125 23.625 C-13.84510675 22.0148091 -12.87633673 20.40544461 -11.90625 18.796875 C-11.42285156 17.99443359 -10.93945312 17.19199219 -10.44140625 16.36523438 C-8.28813532 12.83188601 -6.05996212 9.34897207 -3.8125 5.875 C-3.42618408 5.27768066 -3.03986816 4.68036133 -2.6418457 4.06494141 C-1.76295302 2.70884299 -0.88177216 1.35422787 0 0 Z " fill="#1E201B" transform="translate(61,22)"/>
<path d="M0 0 C0.62132812 0.391875 1.24265625 0.78375 1.8828125 1.1875 C2.50414062 1.538125 3.12546875 1.88875 3.765625 2.25 C10.62521869 6.52611035 14.82446272 13.4804369 16.8828125 21.1875 C17.65681937 29.87257708 18.02801539 38.72449006 12.8828125 46.1875 C11.30809271 48.07002621 9.75173138 49.57815319 7.8828125 51.1875 C9.32052201 47.35360796 11.08111795 43.77186131 12.98046875 40.15234375 C16.00308072 33.5706389 16.07145529 25.78851744 13.82421875 18.98046875 C9.72479793 10.14838324 4.66345694 4.50518884 -4.3671875 0.75 C-12.90460711 -1.94664702 -20.21353723 -2.06201496 -28.4296875 1.6875 C-35.99836899 5.91211045 -41.24436593 11.61668981 -44.45703125 19.7109375 C-46.80130095 28.50541672 -45.33122123 37.22500567 -41.1171875 45.1875 C-36.35618989 52.39060932 -30.48818005 56.93665693 -22.1171875 59.1875 C-12.99455243 60.55222101 -6.47166404 59.13490712 1.45703125 54.5 C3.8828125 53.1875 3.8828125 53.1875 6.8828125 53.1875 C5.68270505 54.15611464 4.47223006 55.1118885 3.2578125 56.0625 C2.58492187 56.59617188 1.91203125 57.12984375 1.21875 57.6796875 C-6.12499909 62.41996701 -14.73479658 61.86376859 -23.1171875 61.1875 C-26.49284963 60.3152968 -29.1785606 59.04090784 -32.1171875 57.1875 C-33.04917969 56.6615625 -33.04917969 56.6615625 -34 56.125 C-40.85959369 51.84888965 -45.05883772 44.8945631 -47.1171875 37.1875 C-47.90922662 28.30008433 -48.01649894 19.95548722 -43.1171875 12.1875 C-42.7665625 11.56617188 -42.4159375 10.94484375 -42.0546875 10.3046875 C-33.73233229 -3.04575731 -13.65305461 -7.47543675 0 0 Z " fill="#019235" transform="translate(47.1171875,2.8125)"/>
<path d="M0 0 C4.10929481 3.62470816 6.66614217 8.0020952 9.5 12.625 C14.28107906 20.33026125 19.21844752 27.90491676 24.34179688 35.38720703 C24.82197266 36.09603027 25.30214844 36.80485352 25.796875 37.53515625 C26.43641113 38.46920288 26.43641113 38.46920288 27.08886719 39.42211914 C28 41 28 41 28 43 C24.7 43 21.4 43 18 43 C13.58937507 33.88665578 9.52690463 24.65457364 5.625 15.3125 C5.18430176 14.26126953 4.74360352 13.21003906 4.28955078 12.12695312 C3.87688965 11.13244141 3.46422852 10.13792969 3.0390625 9.11328125 C2.48532959 7.77970581 2.48532959 7.77970581 1.92041016 6.41918945 C1.10901441 4.28653151 0.49321016 2.22461701 0 0 Z " fill="#019337" transform="translate(8,18)"/>
<path d="M0 0 C6.6 0 13.2 0 20 0 C18.42223309 3.94441727 16.89573137 6.98258932 14.6640625 10.52734375 C14.01179688 11.56697266 13.35953125 12.60660156 12.6875 13.67773438 C12.006875 14.75345703 11.32625 15.82917969 10.625 16.9375 C9.95210937 18.00935547 9.27921875 19.08121094 8.5859375 20.18554688 C5.45240074 25.16651328 2.30332014 30.1297203 -1 35 C-2 33 -2 33 -1.01196289 30.01904297 C-0.50681183 28.75687975 0.00690416 27.49812389 0.52734375 26.2421875 C0.92899498 25.24761032 0.92899498 25.24761032 1.33876038 24.23294067 C2.19778749 22.11061266 3.0674904 19.99284647 3.9375 17.875 C4.52088933 16.43908914 5.10358076 15.00289452 5.68554688 13.56640625 C7.11561295 10.0409241 8.55527016 6.51949699 10 3 C6.7 2.67 3.4 2.34 0 2 C0 1.34 0 0.68 0 0 Z " fill="#BF3417" transform="translate(40,23)"/>
<path d="M0 0 C2.64 0 5.28 0 8 0 C8.33 1.65 8.66 3.3 9 5 C9 3.35 9 1.7 9 0 C9.66 0 10.32 0 11 0 C11 1.65 11 3.3 11 5 C11.66 5 12.32 5 13 5 C13 3.35 13 1.7 13 0 C13.66 0 14.32 0 15 0 C15 1.65 15 3.3 15 5 C15.66 5 16.32 5 17 5 C17 5.66 17 6.32 17 7 C18.32 7 19.64 7 21 7 C20.67 7.66 20.34 8.32 20 9 C13.4 8.67 6.8 8.34 0 8 C0.33 6.68 0.66 5.36 1 4 C0.62092718 1.81296615 0.62092718 1.81296615 0 0 Z " fill="#5C2619" transform="translate(40,15)"/>
<path d="M0 0 C2.64 0 5.28 0 8 0 C8 1.98 8 3.96 8 6 C5.36 6 2.72 6 0 6 C0 4 0 2 0 0 Z " fill="#882C18" transform="translate(40,15)"/>
<path d="M0 0 C1.65 0 3.3 0 5 0 C5.38133299 1.9914056 5.71325582 3.99279077 6 6 C5 7 5 7 2.4375 7.0625 C1.2309375 7.0315625 1.2309375 7.0315625 0 7 C0 4.69 0 2.38 0 0 Z " fill="#09722F" transform="translate(16,20)"/>
<path d="M0 0 C0.66 0 1.32 0 2 0 C2.04241723 2.33294775 2.04092937 4.66702567 2 7 C1 8 1 8 -1.5625 8.0625 C-2.366875 8.041875 -3.17125 8.02125 -4 8 C-4 5.69 -4 3.38 -4 1 C-3.67 1 -3.34 1 -3 1 C-2.67 2.65 -2.34 4.3 -2 6 C-1.67 6 -1.34 6 -1 6 C-0.67 4.02 -0.34 2.04 0 0 Z " fill="#087A31" transform="translate(27,30)"/>
</svg>
